<svg width="128" height="129" viewBox="0 0 128 129" fill="none" xmlns="http://www.w3.org/2000/svg">
<g clip-path="url(#clip0_4152_53)">
<path d="M0 12.0924C0 5.66583 5.20978 0.456055 11.6364 0.456055H116.364C122.79 0.456055 128 5.66583 128 12.0924V116.82C128 123.246 122.79 128.456 116.364 128.456H11.6364C5.20977 128.456 0 123.246 0 116.82V12.0924Z" fill="#F4F4F4"/>
<path d="M0 12.0924C0 5.66583 5.20978 0.456055 11.6364 0.456055H116.364C122.79 0.456055 128 5.66583 128 12.0924V116.82C128 123.246 122.79 128.456 116.364 128.456H11.6364C5.20977 128.456 0 123.246 0 116.82V12.0924Z" fill="#F4F4F4"/>
<mask id="mask0_4152_53" style="mask-type:alpha" maskUnits="userSpaceOnUse" x="83" y="0" width="35" height="43">
<path d="M83.7852 0.456055H117.654V42.8026H83.7852V0.456055Z" fill="#D9D9D9"/>
</mask>
<g mask="url(#mask0_4152_53)">
<path d="M99.399 33.9143L90.0307 37.9293C88.5437 38.5613 87.131 38.4405 85.7927 37.5668C84.4543 36.6932 83.7852 35.4571 83.7852 33.8586V4.91716C83.7852 3.69035 84.222 2.64014 85.0956 1.7665C85.9692 0.892871 87.0195 0.456055 88.2463 0.456055H110.552C111.779 0.456055 112.829 0.892871 113.702 1.7665C114.576 2.64014 115.013 3.69035 115.013 4.91716V33.8586C115.013 35.4571 114.344 36.6932 113.005 37.5668C111.667 38.4405 110.254 38.5613 108.767 37.9293L99.399 33.9143Z" fill="#1C1B1F"/>
</g>
<path d="M38.5703 48.8191C37.653 48.8191 36.8617 48.6166 36.1964 48.2116C35.5352 47.8025 35.0249 47.2323 34.6654 46.5009C34.31 45.7653 34.1323 44.91 34.1323 43.9348C34.1323 42.9595 34.31 42.1 34.6654 41.3562C35.0249 40.6083 35.5249 40.0257 36.1654 39.6083C36.81 39.1868 37.5621 38.9761 38.4216 38.9761C38.9174 38.9761 39.4071 39.0587 39.8906 39.224C40.3741 39.3893 40.8141 39.6579 41.2108 40.0298C41.6075 40.3976 41.9236 40.8852 42.1592 41.4926C42.3947 42.1 42.5125 42.848 42.5125 43.7364V44.3562H35.1736V43.0918H41.0249C41.0249 42.5546 40.9174 42.0752 40.7026 41.6538C40.4918 41.2323 40.1902 40.8996 39.7976 40.6558C39.4092 40.412 38.9505 40.2901 38.4216 40.2901C37.8389 40.2901 37.3348 40.4348 36.9092 40.724C36.4877 41.0091 36.1633 41.381 35.936 41.8397C35.7088 42.2984 35.5951 42.7901 35.5951 43.3149V44.1579C35.5951 44.8769 35.7191 45.4864 35.967 45.9864C36.2191 46.4823 36.5683 46.8604 37.0146 47.1207C37.4608 47.3769 37.9794 47.505 38.5703 47.505C38.9546 47.505 39.3017 47.4513 39.6117 47.3438C39.9257 47.2323 40.1964 47.067 40.4236 46.848C40.6509 46.6248 40.8265 46.348 40.9505 46.0174L42.3637 46.4141C42.215 46.8934 41.965 47.3149 41.6137 47.6786C41.2625 48.0381 40.8286 48.3191 40.3121 48.5215C39.7955 48.7199 39.215 48.8191 38.5703 48.8191Z" fill="black"/>
<path d="M25.7294 42.8937V48.621H24.2666V35.9268H25.7294V40.5879H25.8534C26.0765 40.0962 26.4112 39.7057 26.8575 39.4164C27.3079 39.123 27.9071 38.9763 28.655 38.9763C29.3038 38.9763 29.872 39.1065 30.3596 39.3668C30.8472 39.623 31.2253 40.0177 31.4939 40.5507C31.7666 41.0797 31.903 41.7532 31.903 42.5714V48.621H30.4402V42.6706C30.4402 41.9144 30.2439 41.3297 29.8513 40.9164C29.4629 40.4991 28.9236 40.2904 28.2335 40.2904C27.7542 40.2904 27.3245 40.3916 26.9443 40.5941C26.5683 40.7966 26.2707 41.092 26.0517 41.4805C25.8368 41.8689 25.7294 42.34 25.7294 42.8937Z" fill="black"/>
<path d="M12.5718 37.2904V35.9268H22.0924V37.2904H18.1007V48.621H16.5635V37.2904H12.5718Z" fill="black"/>
<path d="M54.8119 104.81C53.7134 104.81 52.736 104.633 51.8795 104.279C51.0231 103.907 50.3063 103.395 49.7291 102.743C49.152 102.073 48.7145 101.263 48.4166 100.314C48.1187 99.3643 47.9697 98.303 47.9697 97.1301C47.9697 95.9572 48.1187 94.9052 48.4166 93.9743C48.7145 93.0248 49.152 92.2149 49.7291 91.5446C50.3063 90.8744 51.0231 90.3624 51.8795 90.0086C52.736 89.6549 53.7134 89.478 54.8119 89.478C56.3014 89.478 57.5395 89.8132 58.5262 90.4834C59.5316 91.1537 60.2484 92.0939 60.6766 93.3041L57.3254 94.7563C57.195 94.1977 56.9251 93.723 56.5155 93.332C56.1059 92.941 55.538 92.7455 54.8119 92.7455C53.9741 92.7455 53.3411 93.0248 52.9129 93.5833C52.4846 94.1233 52.2705 94.8587 52.2705 95.7896V98.5265C52.2705 99.4574 52.4846 100.193 52.9129 100.733C53.3411 101.273 53.9741 101.543 54.8119 101.543C55.5566 101.543 56.1431 101.347 56.5713 100.956C57.0182 100.547 57.344 100.016 57.5488 99.3643L60.7604 100.761C60.2763 102.157 59.5223 103.181 58.4983 103.833C57.4929 104.484 56.2641 104.81 54.8119 104.81Z" fill="black"/>
<path d="M39.0767 104.81C37.9968 104.81 37.0287 104.633 36.1722 104.279C35.3344 103.926 34.6176 103.414 34.0218 102.743C33.4447 102.073 32.9978 101.263 32.6813 100.314C32.3648 99.3643 32.2065 98.303 32.2065 97.1301C32.2065 95.9572 32.3648 94.8959 32.6813 93.9464C32.9978 92.9969 33.4447 92.1963 34.0218 91.5446C34.6176 90.8744 35.3344 90.3624 36.1722 90.0086C37.0287 89.6549 37.9968 89.478 39.0767 89.478C40.1565 89.478 41.1153 89.6549 41.9532 90.0086C42.8096 90.3624 43.5264 90.8744 44.1036 91.5446C44.6993 92.1963 45.1555 92.9969 45.472 93.9464C45.7885 94.8959 45.9468 95.9572 45.9468 97.1301C45.9468 98.303 45.7885 99.3643 45.472 100.314C45.1555 101.263 44.6993 102.073 44.1036 102.743C43.5264 103.414 42.8096 103.926 41.9532 104.279C41.1153 104.633 40.1565 104.81 39.0767 104.81ZM39.0767 101.543C39.8959 101.543 40.5289 101.291 40.9757 100.789C41.4225 100.286 41.646 99.5691 41.646 98.6382V95.65C41.646 94.719 41.4225 94.0022 40.9757 93.4996C40.5289 92.9969 39.8959 92.7455 39.0767 92.7455C38.2575 92.7455 37.6244 92.9969 37.1776 93.4996C36.7308 94.0022 36.5073 94.719 36.5073 95.65V98.6382C36.5073 99.5691 36.7308 100.286 37.1776 100.789C37.6244 101.291 38.2575 101.543 39.0767 101.543Z" fill="black"/>
<path d="M13.8789 84.9819H21.2238C22.5084 84.9819 23.6814 85.1867 24.7426 85.5963C25.8039 86.0059 26.7068 86.6203 27.4516 87.4395C28.1963 88.2401 28.7735 89.2548 29.1831 90.4836C29.5927 91.6938 29.7975 93.1088 29.7975 94.7286C29.7975 96.3483 29.5927 97.7726 29.1831 99.0014C28.7735 100.212 28.1963 101.226 27.4516 102.045C26.7068 102.846 25.8039 103.451 24.7426 103.861C23.6814 104.27 22.5084 104.475 21.2238 104.475H13.8789V84.9819ZM21.2238 100.705C22.4898 100.705 23.4859 100.351 24.212 99.6438C24.9381 98.9363 25.3012 97.8006 25.3012 96.2366V93.2205C25.3012 91.6566 24.9381 90.5208 24.212 89.8134C23.4859 89.1059 22.4898 88.7521 21.2238 88.7521H18.1239V100.705H21.2238Z" fill="black"/>
<path d="M112.391 78.0469C110.976 78.0469 109.784 77.8235 108.816 77.3767C107.848 76.9112 106.982 76.2596 106.219 75.4218L108.648 72.9642C109.17 73.5413 109.747 73.9975 110.38 74.3326C111.013 74.6677 111.73 74.8353 112.53 74.8353C113.35 74.8353 113.917 74.7143 114.234 74.4722C114.55 74.2116 114.709 73.8671 114.709 73.4389C114.709 72.75 114.215 72.3404 113.228 72.2101L111.637 72.0146C108.341 71.605 106.694 70.097 106.694 67.4904C106.694 66.7829 106.824 66.1406 107.084 65.5634C107.364 64.9676 107.745 64.465 108.23 64.0554C108.732 63.6271 109.328 63.3013 110.017 63.0779C110.724 62.8359 111.516 62.7148 112.391 62.7148C113.154 62.7148 113.824 62.7707 114.401 62.8824C114.997 62.9755 115.519 63.1244 115.965 63.3292C116.431 63.5154 116.85 63.7575 117.222 64.0554C117.613 64.3346 117.995 64.6511 118.367 65.0049L115.993 67.4346C115.528 66.9691 114.997 66.606 114.401 66.3454C113.824 66.0661 113.228 65.9265 112.614 65.9265C111.907 65.9265 111.404 66.0382 111.106 66.2616C110.808 66.485 110.659 66.7829 110.659 67.1553C110.659 67.5463 110.762 67.8535 110.966 68.0769C111.19 68.2817 111.599 68.4306 112.195 68.5237L113.843 68.7471C117.064 69.1754 118.674 70.6462 118.674 73.1596C118.674 73.8671 118.525 74.5188 118.227 75.1146C117.93 75.7103 117.501 76.2316 116.943 76.6785C116.403 77.1067 115.742 77.4418 114.96 77.6839C114.197 77.9259 113.34 78.0469 112.391 78.0469Z" fill="black"/>
<path d="M101.867 77.712C100.433 77.712 99.3439 77.3489 98.5991 76.6228C97.873 75.8967 97.51 74.8355 97.51 73.4391V66.2618H95.4434V63.0501H96.4767C97.0352 63.0501 97.4169 62.9198 97.6217 62.6592C97.8265 62.3799 97.9289 61.9889 97.9289 61.4862V59.0845H101.643V63.0501H104.548V66.2618H101.643V74.5003H104.324V77.712H101.867Z" fill="black"/>
<path d="M88.2216 78.0469C87.1231 78.0469 86.1456 77.87 85.2892 77.5163C84.4328 77.1439 83.716 76.6319 83.1388 75.9803C82.5617 75.31 82.1241 74.5002 81.8262 73.5506C81.5283 72.6011 81.3794 71.5399 81.3794 70.3669C81.3794 69.194 81.5283 68.142 81.8262 67.2111C82.1241 66.2616 82.5617 65.4517 83.1388 64.7815C83.716 64.1112 84.4328 63.5992 85.2892 63.2455C86.1456 62.8917 87.1231 62.7148 88.2216 62.7148C89.711 62.7148 90.9491 63.05 91.9359 63.7202C92.9413 64.3905 93.6581 65.3307 94.0863 66.5409L90.735 67.9931C90.6047 67.4346 90.3347 66.9598 89.9251 66.5688C89.5155 66.1778 88.9477 65.9823 88.2216 65.9823C87.3838 65.9823 86.7507 66.2616 86.3225 66.8202C85.8943 67.3601 85.6802 68.0955 85.6802 69.0264V71.7633C85.6802 72.6942 85.8943 73.4296 86.3225 73.9695C86.7507 74.5095 87.3838 74.7794 88.2216 74.7794C88.9663 74.7794 89.5528 74.5839 89.981 74.193C90.4278 73.7834 90.7537 73.2527 90.9585 72.6011L94.1701 73.9975C93.686 75.3938 92.932 76.4178 91.908 77.0695C90.9026 77.7211 89.6738 78.0469 88.2216 78.0469Z" fill="black"/>
<path d="M72.7345 78.0469C71.6174 78.0469 70.6213 77.87 69.7462 77.5163C68.8712 77.1439 68.1265 76.6319 67.5121 75.9803C66.9163 75.31 66.4601 74.5002 66.1436 73.5506C65.8457 72.6011 65.6968 71.5399 65.6968 70.3669C65.6968 69.2126 65.8457 68.17 66.1436 67.2391C66.4415 66.2895 66.879 65.4796 67.4562 64.8094C68.052 64.1391 68.7781 63.6271 69.6345 63.2734C70.491 62.901 71.4684 62.7148 72.5669 62.7148C73.7771 62.7148 74.8104 62.9196 75.6668 63.3292C76.5419 63.7388 77.2494 64.2881 77.7893 64.977C78.3478 65.6658 78.7481 66.4664 78.9902 67.3787C79.2508 68.2724 79.3811 69.2126 79.3811 70.1994V71.4282H69.9697V71.6516C69.9697 72.6197 70.2303 73.3924 70.7516 73.9695C71.2729 74.5281 72.0921 74.8074 73.2092 74.8074C74.0657 74.8074 74.7638 74.6398 75.3038 74.3047C75.8437 73.9509 76.3464 73.532 76.8118 73.0479L78.8785 75.6172C78.2268 76.3806 77.3704 76.9764 76.3091 77.4046C75.2665 77.8328 74.075 78.0469 72.7345 78.0469ZM72.6507 65.7589C71.8129 65.7589 71.1519 66.0382 70.6678 66.5967C70.2024 67.1367 69.9697 67.8628 69.9697 68.7751V68.9985H75.1083V68.7471C75.1083 67.8535 74.9035 67.1367 74.4939 66.5967C74.1029 66.0382 73.4885 65.7589 72.6507 65.7589Z" fill="black"/>
<path d="M58.628 63.0497H62.7613V79.2754C62.7613 80.5787 62.4355 81.5747 61.7838 82.2636C61.1322 82.9525 60.0802 83.2969 58.628 83.2969H56.4497V80.0853H58.628V63.0497ZM60.6947 61.4857C59.8568 61.4857 59.2424 61.2995 58.8515 60.9272C58.4791 60.5362 58.2929 60.0428 58.2929 59.447V58.8326C58.2929 58.2369 58.4791 57.7528 58.8515 57.3804C59.2424 56.9894 59.8568 56.7939 60.6947 56.7939C61.5325 56.7939 62.1376 56.9894 62.5099 57.3804C62.9009 57.7528 63.0964 58.2369 63.0964 58.8326V59.447C63.0964 60.0428 62.9009 60.5362 62.5099 60.9272C62.1376 61.2995 61.5325 61.4857 60.6947 61.4857Z" fill="black"/>
<path d="M48.813 78.0469C47.7331 78.0469 46.765 77.87 45.9085 77.5163C45.0707 77.1626 44.3539 76.6506 43.7581 75.9803C43.181 75.31 42.7341 74.5002 42.4176 73.5506C42.1011 72.6011 41.9429 71.5399 41.9429 70.3669C41.9429 69.194 42.1011 68.1327 42.4176 67.1832C42.7341 66.2337 43.181 65.4331 43.7581 64.7815C44.3539 64.1112 45.0707 63.5992 45.9085 63.2455C46.765 62.8917 47.7331 62.7148 48.813 62.7148C49.8928 62.7148 50.8517 62.8917 51.6895 63.2455C52.5459 63.5992 53.2627 64.1112 53.8399 64.7815C54.4357 65.4331 54.8918 66.2337 55.2083 67.1832C55.5248 68.1327 55.6831 69.194 55.6831 70.3669C55.6831 71.5399 55.5248 72.6011 55.2083 73.5506C54.8918 74.5002 54.4357 75.31 53.8399 75.9803C53.2627 76.6506 52.5459 77.1626 51.6895 77.5163C50.8517 77.87 49.8928 78.0469 48.813 78.0469ZM48.813 74.7794C49.6322 74.7794 50.2652 74.5281 50.712 74.0254C51.1589 73.5227 51.3823 72.8059 51.3823 71.875V68.8868C51.3823 67.9559 51.1589 67.2391 50.712 66.7364C50.2652 66.2337 49.6322 65.9823 48.813 65.9823C47.9938 65.9823 47.3608 66.2337 46.9139 66.7364C46.4671 67.2391 46.2437 67.9559 46.2437 68.8868V71.875C46.2437 72.8059 46.4671 73.5227 46.9139 74.0254C47.3608 74.5281 47.9938 74.7794 48.813 74.7794Z" fill="black"/>
<path d="M31.7095 77.7116V63.0498H35.8427V66.2335H35.9823C36.0568 65.8239 36.1871 65.4329 36.3733 65.0606C36.5595 64.6696 36.8015 64.3251 37.0994 64.0273C37.4159 63.7294 37.7883 63.4966 38.2165 63.3291C38.6447 63.1429 39.1474 63.0498 39.7246 63.0498H40.4507V66.9038H39.4174C38.2072 66.9038 37.3042 67.062 36.7085 67.3785C36.1313 67.695 35.8427 68.2815 35.8427 69.138V77.7116H31.7095Z" fill="black"/>
<path d="M13.8789 77.712V58.2188H23.0949C24.0072 58.2188 24.8264 58.377 25.5525 58.6935C26.2786 58.9914 26.893 59.4103 27.3957 59.9502C27.917 60.4902 28.3173 61.1511 28.5966 61.9331C28.8759 62.6964 29.0155 63.5342 29.0155 64.4465C29.0155 65.3774 28.8759 66.2246 28.5966 66.9879C28.3173 67.7513 27.917 68.4029 27.3957 68.9428C26.893 69.4828 26.2786 69.911 25.5525 70.2275C24.8264 70.5254 24.0072 70.6743 23.0949 70.6743H18.1239V77.712H13.8789ZM18.1239 66.9879H22.5922C23.2252 66.9879 23.7186 66.8297 24.0724 66.5132C24.4447 66.178 24.6309 65.694 24.6309 65.0609V63.8321C24.6309 63.1991 24.4447 62.7244 24.0724 62.4078C23.7186 62.0727 23.2252 61.9051 22.5922 61.9051H18.1239V66.9879Z" fill="black"/>
</g>
<defs>
<clipPath id="clip0_4152_53">
<rect width="128" height="128" fill="white" transform="translate(0 0.456055)"/>
</clipPath>
</defs>
</svg>
