<svg xmlns="http://www.w3.org/2000/svg" xmlns:xlink="http://www.w3.org/1999/xlink" width="1152" zoomAndPan="magnify" viewBox="0 0 864 347.249998" height="463" preserveAspectRatio="xMidYMid meet" version="1.2"><defs/><g id="f376f1d1fb"><g style="fill:#1565c0;fill-opacity:1;"><g transform="translate(145.390289, 229.531215)"><path style="stroke:none" d="M 71.5625 -14.15625 C 69.78125 -10.332031 67.101562 -7.238281 63.53125 -4.875 C 59.957031 -2.519531 56.066406 -0.800781 51.859375 0.28125 C 47.648438 1.363281 43.566406 1.90625 39.609375 1.90625 C 28.890625 1.90625 20.628906 -0.640625 14.828125 -5.734375 C 9.023438 -10.835938 6.125 -17.472656 6.125 -25.640625 C 6.125 -30.867188 7.460938 -35.75 10.140625 -40.28125 C 12.816406 -44.8125 16.832031 -48.476562 22.1875 -51.28125 C 27.550781 -54.082031 34.125 -55.484375 41.90625 -55.484375 C 46.113281 -55.484375 50.320312 -55.164062 54.53125 -54.53125 C 58.738281 -53.894531 62.691406 -52.8125 66.390625 -51.28125 L 66.390625 -60.265625 C 66.390625 -65.242188 64.378906 -68.941406 60.359375 -71.359375 C 56.347656 -73.785156 51.664062 -75 46.3125 -75 C 40.4375 -75 34.976562 -74.394531 29.9375 -73.1875 C 24.90625 -71.976562 20.859375 -70.800781 17.796875 -69.65625 L 13.203125 -86.484375 C 18.429688 -89.160156 23.976562 -91.070312 29.84375 -92.21875 C 35.71875 -93.375 41.78125 -93.953125 48.03125 -93.953125 C 55.9375 -93.953125 63.238281 -92.992188 69.9375 -91.078125 C 76.632812 -89.160156 81.988281 -85.78125 86 -80.9375 C 90.019531 -76.09375 92.03125 -69.203125 92.03125 -60.265625 L 92.03125 -26.78125 C 92.03125 -22.832031 92.378906 -19.804688 93.078125 -17.703125 C 93.785156 -15.597656 96.304688 -14.671875 100.640625 -14.921875 L 100.84375 0 C 96.25 1.019531 91.6875 1.429688 87.15625 1.234375 C 82.625 1.046875 78.890625 -0.191406 75.953125 -2.484375 C 73.023438 -4.785156 71.5625 -8.675781 71.5625 -14.15625 Z M 66.390625 -35.59375 C 64.347656 -36.613281 61.539062 -37.441406 57.96875 -38.078125 C 54.40625 -38.710938 50.773438 -39.03125 47.078125 -39.03125 C 42.347656 -39.03125 38.738281 -37.945312 36.25 -35.78125 C 33.769531 -33.613281 32.53125 -30.742188 32.53125 -27.171875 C 32.53125 -24.878906 33.550781 -22.742188 35.59375 -20.765625 C 37.632812 -18.785156 40.757812 -17.796875 44.96875 -17.796875 C 47.894531 -17.796875 50.953125 -18.398438 54.140625 -19.609375 C 57.335938 -20.828125 60.113281 -22.742188 62.46875 -25.359375 C 64.832031 -27.972656 66.140625 -31.382812 66.390625 -35.59375 Z M 66.390625 -35.59375 "/></g></g><g style="fill:#1565c0;fill-opacity:1;"><g transform="translate(251.391738, 229.531215)"><path style="stroke:none" d="M 100.078125 -92.234375 L 100.078125 -27.546875 C 100.078125 -23.210938 100.488281 -20.21875 101.3125 -18.5625 C 102.144531 -16.90625 104.601562 -16.203125 108.6875 -16.453125 L 108.875 -0.1875 C 105.6875 0.570312 102.144531 1.144531 98.25 1.53125 C 94.363281 1.914062 90.664062 1.785156 87.15625 1.140625 C 83.644531 0.503906 80.773438 -0.925781 78.546875 -3.15625 C 76.316406 -5.382812 75.203125 -8.734375 75.203125 -13.203125 C 73.535156 -9.628906 71.078125 -6.722656 67.828125 -4.484375 C 64.578125 -2.253906 61.003906 -0.632812 57.109375 0.375 C 53.222656 1.394531 49.429688 1.90625 45.734375 1.90625 C 36.929688 1.90625 30.039062 0.0546875 25.0625 -3.640625 C 20.09375 -7.335938 16.585938 -12.28125 14.546875 -18.46875 C 12.503906 -24.65625 11.484375 -31.570312 11.484375 -39.21875 L 11.484375 -92.234375 L 38.453125 -92.234375 L 38.453125 -39.21875 C 38.453125 -31.820312 39.921875 -26.625 42.859375 -23.625 C 45.796875 -20.632812 49.625 -19.140625 54.34375 -19.140625 C 59.695312 -19.003906 64.191406 -20.847656 67.828125 -24.671875 C 71.460938 -28.503906 73.28125 -33.546875 73.28125 -39.796875 L 73.28125 -92.234375 Z M 100.078125 -92.234375 "/></g></g><g style="fill:#1565c0;fill-opacity:1;"><g transform="translate(367.151443, 229.531215)"><path style="stroke:none" d="M 47.640625 -92.03125 L 77.6875 -92.03125 L 77.6875 -71.9375 L 47.640625 -71.9375 L 47.640625 -37.6875 C 47.640625 -31.3125 49.171875 -26.785156 52.234375 -24.109375 C 55.296875 -21.429688 59.21875 -20.15625 64 -20.28125 C 68.789062 -20.40625 73.734375 -21.363281 78.828125 -23.15625 L 81.328125 -2.875 C 73.410156 -0.707031 65.847656 0.5 58.640625 0.75 C 51.441406 1.007812 45.035156 -0.0664062 39.421875 -2.484375 C 33.804688 -4.910156 29.40625 -8.929688 26.21875 -14.546875 C 23.03125 -20.160156 21.4375 -27.6875 21.4375 -37.125 L 21.4375 -71.9375 L 4.015625 -73.671875 L 4.015625 -92.03125 L 23.34375 -92.03125 L 26.21875 -120.734375 L 47.640625 -120.734375 Z M 47.640625 -92.03125 "/></g></g><g style="fill:#1565c0;fill-opacity:1;"><g transform="translate(453.253706, 229.531215)"><path style="stroke:none" d="M 76.15625 0 L 76.15625 -53.390625 C 76.40625 -59.890625 74.875 -64.765625 71.5625 -68.015625 C 68.25 -71.273438 64.101562 -72.90625 59.125 -72.90625 C 53.769531 -73.03125 49.144531 -71.304688 45.25 -67.734375 C 41.363281 -64.160156 39.421875 -59.1875 39.421875 -52.8125 L 39.421875 0 L 12.4375 0 L 12.4375 -139.6875 L 39.421875 -139.6875 L 39.421875 -82.28125 C 42.347656 -86.363281 46.203125 -89.359375 50.984375 -91.265625 C 55.773438 -93.179688 61.039062 -94.140625 66.78125 -94.140625 C 75.582031 -94.140625 82.628906 -92.382812 87.921875 -88.875 C 93.210938 -85.375 97.070312 -80.5625 99.5 -74.4375 C 101.925781 -68.3125 103.140625 -61.296875 103.140625 -53.390625 L 103.140625 0 Z M 76.15625 0 "/></g></g><g style="fill:#b00020;fill-opacity:1;"><g transform="translate(570.74218, 230.617884)"><path style="stroke:none" d="M 13.578125 0 L 13.578125 -134.890625 L 38.453125 -134.890625 L 38.453125 -53.953125 L 39.03125 -53.953125 L 75.96875 -94.53125 L 105.625 -94.53125 L 59.125 -44.203125 L 59.3125 -53.578125 L 108.6875 0 L 78.640625 0 L 39.03125 -41.71875 L 38.453125 -41.71875 L 38.453125 0 Z M 13.578125 0 "/></g></g><g style="fill:#b00020;fill-opacity:1;"><g transform="translate(676.934961, 230.617884)"><path style="stroke:none" d="M 11.859375 -114.046875 L 11.859375 -138.53125 L 39.984375 -138.53125 L 39.984375 -114.046875 Z M 13.578125 0 L 13.578125 -94.53125 L 38.453125 -94.53125 L 38.453125 0 Z M 13.578125 0 "/></g></g><g style="fill:#b00020;fill-opacity:1;"><g transform="translate(728.97899, 230.617884)"><path style="stroke:none" d="M 57.78125 1.90625 C 44.894531 1.90625 35.296875 -1.3125 28.984375 -7.75 C 22.671875 -14.1875 19.515625 -23.53125 19.515625 -35.78125 L 19.515625 -75.203125 L 1.34375 -75.203125 L 1.34375 -94.53125 L 20.28125 -94.53125 L 20.28125 -121.890625 L 44.390625 -121.890625 L 44.390625 -94.53125 L 74.8125 -94.53125 L 74.8125 -75.203125 L 44.390625 -75.203125 L 44.390625 -36.921875 C 44.390625 -30.804688 45.789062 -26.25 48.59375 -23.25 C 51.40625 -20.25 55.804688 -18.75 61.796875 -18.75 C 63.972656 -18.75 66.113281 -18.972656 68.21875 -19.421875 C 70.320312 -19.867188 72.457031 -20.410156 74.625 -21.046875 L 78.265625 -2.484375 C 75.578125 -1.078125 72.414062 0.00390625 68.78125 0.765625 C 65.144531 1.523438 61.476562 1.90625 57.78125 1.90625 Z M 57.78125 1.90625 "/></g></g><g style="fill:#ff7043;fill-opacity:1;"><g transform="translate(51.240798, 232.791216)"><path style="stroke:none" d="M 80.171875 -158.8125 L 101.984375 -158.8125 L 34.828125 21.046875 L 12.8125 21.046875 Z M 80.171875 -158.8125 "/></g></g></g></svg>