<svg width="826" height="150" viewBox="0 0 826 150" fill="none" xmlns="http://www.w3.org/2000/svg">
<rect width="826" height="150" fill="white"/>
<g clip-path="url(#clip0_2_220)">
<path d="M127.208 97.7898C126.439 99.4423 125.283 100.779 123.741 101.8C122.199 102.818 120.519 103.561 118.703 104.028C116.885 104.496 115.123 104.731 113.415 104.731C108.788 104.731 105.221 103.63 102.717 101.429C100.212 99.2245 98.9603 96.3567 98.9603 92.8272C98.9603 90.5687 99.537 88.4587 100.694 86.5007C101.849 84.5427 103.582 82.9594 105.894 81.7474C108.209 80.5371 111.047 79.9312 114.406 79.9312C116.222 79.9312 118.039 80.0696 119.856 80.343C121.672 80.6182 123.379 81.0857 124.976 81.7474V77.8651C124.976 75.7146 124.107 74.1161 122.372 73.0713C120.64 72.0231 118.619 71.4981 116.308 71.4981C113.772 71.4981 111.415 71.7598 109.24 72.2813C107.068 72.8046 105.321 73.3127 103.999 73.8072L102.016 66.5355C104.272 65.3793 106.666 64.5538 109.199 64.0576C111.735 63.558 114.352 63.3081 117.05 63.3081C120.463 63.3081 123.615 63.7234 126.507 64.5505C129.397 65.3793 131.709 66.8393 133.441 68.9324C135.176 71.0255 136.044 74.003 136.044 77.8651V92.3343C136.044 94.0408 136.194 95.349 136.496 96.2571C136.801 97.1669 137.889 97.567 139.761 97.4589L139.848 103.907C137.865 104.347 135.896 104.525 133.94 104.44C131.984 104.359 130.372 103.824 129.104 102.833C127.839 101.839 127.208 100.158 127.208 97.7898ZM124.976 88.5262C124.094 88.0857 122.881 87.7278 121.34 87.4527C119.802 87.1792 118.234 87.0408 116.639 87.0408C114.597 87.0408 113.039 87.5101 111.965 88.4452C110.894 89.382 110.359 90.6227 110.359 92.1655C110.359 93.1563 110.799 94.0796 111.681 94.9337C112.562 95.7895 113.911 96.2166 115.728 96.2166C116.991 96.2166 118.312 95.9566 119.688 95.4334C121.067 94.9067 122.266 94.0796 123.283 92.9487C124.303 91.8194 124.868 90.3459 124.976 88.5262Z" fill="#1565C0"/>
<path d="M185.277 64.0508V92.0034C185.277 93.8771 185.454 95.1701 185.809 95.8857C186.169 96.6014 187.229 96.9053 188.993 96.7972L189.074 103.826C187.698 104.153 186.169 104.402 184.487 104.569C182.81 104.734 181.213 104.678 179.699 104.4C178.183 104.125 176.943 103.507 175.982 102.543C175.019 101.581 174.539 100.133 174.539 98.2016C173.819 99.7461 172.758 101.002 171.355 101.969C169.952 102.933 168.409 103.633 166.728 104.069C165.05 104.51 163.413 104.731 161.818 104.731C158.017 104.731 155.042 103.931 152.894 102.334C150.749 100.737 149.235 98.6 148.355 95.9263C147.473 93.2525 147.033 90.2649 147.033 86.9598V64.0508H158.674V86.9598C158.674 90.1568 159.308 92.4018 160.576 93.6982C161.845 94.9911 163.497 95.6359 165.534 95.6359C167.844 95.695 169.785 94.8983 171.355 93.2458C172.923 91.5899 173.709 89.4107 173.709 86.71V64.0508L185.277 64.0508Z" fill="#1565C0"/>
<path d="M212.612 64.1386H225.582V72.8215H212.612V87.6215C212.612 90.3763 213.273 92.3326 214.595 93.4889C215.917 94.6468 217.61 95.1971 219.674 95.1431C221.741 95.089 223.876 94.6755 226.075 93.9007L227.154 102.665C223.736 103.601 220.471 104.123 217.36 104.231C214.252 104.342 211.487 103.878 209.064 102.833C206.639 101.785 204.74 100.048 203.364 97.621C201.988 95.1954 201.3 91.9427 201.3 87.8646V72.8215L193.78 72.072V64.1386H202.123L203.364 51.7355H212.612L212.612 64.1386Z" fill="#1565C0"/>
<path d="M262.09 103.907V80.8359C262.198 78.0271 261.537 75.9206 260.107 74.5162C258.677 73.1084 256.886 72.4029 254.738 72.4029C252.426 72.3488 250.429 73.0949 248.748 74.6377C247.07 76.1822 246.232 78.331 246.232 81.0857V103.907H234.584V43.5455H246.232V68.3518C247.495 66.5878 249.16 65.2932 251.224 64.4694C253.291 63.6423 255.564 63.2271 258.043 63.2271C261.842 63.2271 264.884 63.9867 267.169 65.5025C269.452 67.0149 271.118 69.0945 272.167 71.7412C273.214 74.3879 273.738 77.4195 273.738 80.8359V103.907H262.09Z" fill="#1565C0"/>
<path d="M285.793 104.376V46.0879H296.531V81.0624H296.781L312.726 63.5279H325.528L305.455 85.2756L305.536 81.2244L326.85 104.376H313.88L296.781 86.3491H296.531V104.376L285.793 104.376Z" fill="#B00020"/>
<path d="M330.893 55.0948V44.5147H343.034V55.0948H330.893ZM331.635 104.376V63.5279H342.373V104.376H331.635Z" fill="#B00020"/>
<path d="M373.183 105.2C367.62 105.2 363.477 103.809 360.752 101.028C358.027 98.2458 356.664 94.2082 356.664 88.9148V71.8799H348.82V63.5279H356.995V51.7054H367.402V63.5279H380.535V71.8799H367.402V88.4219C367.402 91.0652 368.006 93.0334 369.217 94.3298C370.431 95.6261 372.329 96.2743 374.916 96.2743C375.855 96.2743 376.779 96.1781 377.688 95.9839C378.595 95.7915 379.518 95.5569 380.454 95.2818L382.025 103.303C380.865 103.911 379.499 104.378 377.931 104.707C376.361 105.035 374.778 105.2 373.183 105.2Z" fill="#B00020"/>
<path d="M90.2824 36.69H99.6985L70.7085 114.41H61.2048L90.2824 36.69Z" fill="#FF7043"/>
</g>
<path d="M463.133 37.0672H455.536V44.8578H463.133V37.0672Z" fill="black"/>
<path d="M470.729 44.8578H463.133V52.6483H470.729V44.8578Z" fill="white"/>
<path d="M478.326 76.02H470.729V83.8106H478.326V76.02Z" fill="white"/>
<path d="M485.923 68.2294H478.326V76.02H485.923V68.2294Z" fill="white"/>
<path d="M485.923 83.8106H478.326V91.6011H485.923V83.8106Z" fill="white"/>
<path d="M485.923 91.6011H478.326V99.3917H485.923V91.6011Z" fill="white"/>
<path d="M485.923 99.3917H478.326V107.182H485.923V99.3917Z" fill="white"/>
<path d="M493.52 68.2294H485.923V76.02H493.52V68.2294Z" fill="white"/>
<path d="M501.116 76.02H493.52L493.52 83.8106H501.116V76.02Z" fill="white"/>
<path d="M501.116 83.8106H493.52V91.6011H501.116V83.8106Z" fill="white"/>
<path d="M501.116 91.6011H493.52V99.3917H501.116V91.6011Z" fill="white"/>
<path d="M501.116 99.3917H493.52V107.182H501.116V99.3917Z" fill="white"/>
<path d="M470.729 52.6483H463.133V60.4389H470.729V52.6483Z" fill="white"/>
<path d="M470.729 60.4389H463.133V68.2294H470.729V60.4389Z" fill="white"/>
<path d="M470.729 68.2294H463.133V76.02H470.729V68.2294Z" fill="white"/>
<path d="M470.729 76.02H463.133V83.8106H470.729V76.02Z" fill="white"/>
<path d="M470.729 83.8106H463.133V91.6011H470.729V83.8106Z" fill="white"/>
<path d="M470.729 91.6011H463.133V99.3917H470.729V91.6011Z" fill="white"/>
<path d="M470.729 99.3917H463.133V107.182H470.729V99.3917Z" fill="white"/>
<path d="M463.133 44.8578H455.536V52.6483H463.133V44.8578Z" fill="black"/>
<path d="M463.133 52.6483H455.536V60.4389H463.133V52.6483Z" fill="black"/>
<path d="M463.133 60.4389H455.536V68.2294H463.133V60.4389Z" fill="black"/>
<path d="M463.133 68.2294H455.536V76.02H463.133V68.2294Z" fill="black"/>
<path d="M463.133 76.02H455.536V83.8106H463.133V76.02Z" fill="black"/>
<path d="M463.133 83.8106H455.536V91.6011H463.133V83.8106Z" fill="black"/>
<path d="M463.133 91.6011H455.536V99.3917H463.133V91.6011Z" fill="black"/>
<path d="M463.133 99.3917H455.536V107.182H463.133V99.3917Z" fill="black"/>
<path d="M463.133 107.182H455.536V114.973H463.133V107.182Z" fill="black"/>
<path d="M470.729 107.182H463.133V114.973H470.729V107.182Z" fill="black"/>
<path d="M478.326 107.182H470.729V114.973H478.326V107.182Z" fill="black"/>
<path d="M485.923 107.182H478.326V114.973H485.923V107.182Z" fill="black"/>
<path d="M493.52 107.182H485.923V114.973H493.52L493.52 107.182Z" fill="black"/>
<path d="M501.116 107.182H493.52L493.52 114.973H501.116V107.182Z" fill="black"/>
<path d="M508.713 107.182L501.116 107.182V114.973H508.713V107.182Z" fill="black"/>
<path d="M508.713 99.3917H501.116V107.182L508.713 107.182V99.3917Z" fill="black"/>
<path d="M508.713 91.6011H501.116V99.3917H508.713V91.6011Z" fill="black"/>
<path d="M508.713 83.8106H501.116V91.6011H508.713V83.8106Z" fill="black"/>
<path d="M508.713 76.02H501.116V83.8106H508.713V76.02Z" fill="black"/>
<path d="M508.713 68.2294H501.116L501.116 76.02H508.713V68.2294Z" fill="black"/>
<path d="M508.713 60.4389H501.116V68.2294H508.713V60.4389Z" fill="black"/>
<path d="M508.713 52.6483H501.116V60.4389H508.713V52.6483Z" fill="black"/>
<path d="M478.326 44.8578H470.729V52.6483H478.326V44.8578Z" fill="black"/>
<path d="M485.923 44.8578H478.326V52.6483H485.923V44.8578Z" fill="black"/>
<path d="M493.52 44.8578H485.923V52.6483H493.52V44.8578Z" fill="black"/>
<path d="M501.116 44.8578H493.52V52.6483H501.116L501.116 44.8578Z" fill="black"/>
<path d="M501.116 52.6483H493.52L493.52 60.4389H501.116V52.6483Z" fill="black"/>
<path d="M501.116 60.4389H493.52L493.52 68.2294H501.116V60.4389Z" fill="black"/>
<path d="M501.116 68.2294H493.52V76.02H501.116L501.116 68.2294Z" fill="black"/>
<path d="M485.923 76.02H478.326V83.8106H485.923V76.02Z" fill="black"/>
<path d="M493.52 76.02H485.923V83.8106H493.52L493.52 76.02Z" fill="black"/>
<path d="M493.52 83.8106H485.923V91.6011H493.52V83.8106Z" fill="black"/>
<path d="M493.52 91.6011H485.923V99.3917H493.52V91.6011Z" fill="black"/>
<path d="M493.52 99.3917H485.923V107.182H493.52V99.3917Z" fill="black"/>
<path d="M478.326 83.8106H470.729V91.6011H478.326V83.8106Z" fill="black"/>
<path d="M478.326 91.6011H470.729V99.3917H478.326V91.6011Z" fill="black"/>
<path d="M478.326 99.3917H470.729V107.182H478.326V99.3917Z" fill="black"/>
<path d="M478.326 68.2294H470.729V76.02H478.326V68.2294Z" fill="black"/>
<path d="M478.326 60.4389H470.729V68.2294H478.326V60.4389Z" fill="black"/>
<path d="M478.326 52.6483H470.729V60.4389H478.326V52.6483Z" fill="black"/>
<path d="M485.923 52.6483H478.326V60.4389H485.923V52.6483Z" fill="black"/>
<path d="M493.52 52.6483H485.923V60.4389H493.52L493.52 52.6483Z" fill="black"/>
<path d="M485.923 60.4389H478.326V68.2294H485.923V60.4389Z" fill="black"/>
<path d="M493.52 60.4389H485.923V68.2294H493.52L493.52 60.4389Z" fill="black"/>
<path d="M508.713 44.8578H501.116L501.116 52.6483H508.713V44.8578Z" fill="black"/>
<path d="M508.713 37.0672H501.116L501.116 44.8578H508.713V37.0672Z" fill="black"/>
<path d="M470.729 37.0672H463.133V44.8578H470.729V37.0672Z" fill="black"/>
<path d="M478.326 37.0672H470.729V44.8578H478.326V37.0672Z" fill="black"/>
<path d="M485.923 37.0672H478.326V44.8578H485.923V37.0672Z" fill="black"/>
<path d="M493.52 37.0672H485.923V44.8578H493.52V37.0672Z" fill="black"/>
<path d="M501.116 37.0672H493.52V44.8578H501.116L501.116 37.0672Z" fill="black"/>
<path d="M521.228 87.273V46.9825H528.459V64.0391H546.958V46.9825H554.21V87.273H546.958V70.1574H528.459V87.273H521.228Z" fill="black"/>
<path d="M561.214 87.273V57.0551H568.271V87.273H561.214ZM564.762 52.7664C563.645 52.7664 562.683 52.3926 561.877 51.645C561.071 50.8843 560.669 49.9728 560.669 48.9104C560.669 47.835 561.071 46.9234 561.877 46.1759C562.683 45.4152 563.645 45.0348 564.762 45.0348C565.893 45.0348 566.854 45.4152 567.647 46.1759C568.453 46.9234 568.856 47.835 568.856 48.9104C568.856 49.9728 568.453 50.8843 567.647 51.645C566.854 52.3926 565.893 52.7664 564.762 52.7664Z" fill="black"/>
<path d="M573.536 53.1008V46.9825H605.387V53.1008H593.048V87.273H585.875V53.1008H573.536Z" fill="black"/>
<path d="M610.979 87.273V46.9825H636.943V53.1008H618.211V64.0391H635.598V70.1574H618.211V81.1547H637.099V87.273H610.979Z" fill="black"/>
<path d="M677.944 60.5766H670.654C670.446 59.37 670.062 58.3011 669.503 57.3699C668.945 56.4256 668.249 55.6255 667.418 54.9697C666.586 54.314 665.637 53.8221 664.572 53.4943C663.519 53.1533 662.382 52.9828 661.16 52.9828C658.99 52.9828 657.067 53.5336 655.391 54.6353C653.714 55.7239 652.402 57.324 651.453 59.4356C650.504 61.534 650.03 64.0981 650.03 67.1277C650.03 70.2099 650.504 72.8067 651.453 74.9183C652.415 77.0168 653.727 78.6037 655.391 79.6792C657.067 80.7416 658.984 81.2727 661.141 81.2727C662.337 81.2727 663.454 81.1153 664.494 80.8006C665.546 80.4727 666.489 79.994 667.32 79.3644C668.165 78.7349 668.873 77.9611 669.445 77.043C670.03 76.1249 670.433 75.0757 670.654 73.8953L677.944 73.9347C677.671 75.8495 677.08 77.6463 676.17 79.3251C675.273 81.0039 674.097 82.4859 672.642 83.7712C671.186 85.0434 669.484 86.0402 667.535 86.7615C665.585 87.4698 663.422 87.8239 661.043 87.8239C657.535 87.8239 654.403 87.0042 651.648 85.3647C648.893 83.7253 646.723 81.358 645.137 78.2627C643.552 75.1675 642.759 71.4558 642.759 67.1277C642.759 62.7865 643.558 59.0749 645.157 55.9928C646.755 52.8975 648.932 50.5302 651.687 48.8908C654.442 47.2513 657.561 46.4316 661.043 46.4316C663.266 46.4316 665.332 46.7464 667.242 47.3759C669.153 48.0055 670.855 48.9301 672.349 50.1498C673.844 51.3565 675.072 52.8385 676.034 54.596C677.008 56.3403 677.645 58.3339 677.944 60.5766Z" fill="black"/>
<path d="M684.018 87.273V46.9825H691.25V64.0391H709.749V46.9825H717V87.273H709.749V70.1574H691.25V87.273H684.018Z" fill="black"/>
<path d="M534.154 96.3055H531.42C531.342 95.853 531.198 95.4521 530.989 95.1029C530.779 94.7488 530.518 94.4488 530.207 94.2029C529.895 93.957 529.539 93.7725 529.139 93.6496C528.745 93.5217 528.318 93.4578 527.86 93.4578C527.046 93.4578 526.325 93.6643 525.696 94.0775C525.068 94.4857 524.575 95.0857 524.22 95.8776C523.864 96.6645 523.686 97.626 523.686 98.7621C523.686 99.9179 523.864 100.892 524.22 101.684C524.58 102.471 525.073 103.066 525.696 103.469C526.325 103.867 527.044 104.067 527.853 104.067C528.301 104.067 528.72 104.007 529.11 103.889C529.505 103.767 529.858 103.587 530.17 103.351C530.487 103.115 530.752 102.825 530.967 102.48C531.186 102.136 531.337 101.743 531.42 101.3L534.154 101.315C534.052 102.033 533.83 102.707 533.489 103.336C533.152 103.966 532.711 104.521 532.166 105.003C531.62 105.481 530.981 105.854 530.25 106.125C529.519 106.39 528.708 106.523 527.816 106.523C526.5 106.523 525.326 106.216 524.293 105.601C523.26 104.986 522.446 104.098 521.851 102.938C521.257 101.777 520.96 100.385 520.96 98.7621C520.96 97.1342 521.259 95.7423 521.859 94.5865C522.458 93.4258 523.274 92.5381 524.307 91.9233C525.341 91.3085 526.51 91.0011 527.816 91.0011C528.65 91.0011 529.424 91.1191 530.141 91.3552C530.857 91.5913 531.495 91.938 532.056 92.3954C532.616 92.8479 533.077 93.4037 533.437 94.0627C533.803 94.7169 534.042 95.4644 534.154 96.3055Z" fill="black"/>
<path d="M541.212 106.538C540.116 106.538 539.165 106.295 538.361 105.808C537.557 105.321 536.933 104.639 536.49 103.764C536.051 102.889 535.832 101.866 535.832 100.695C535.832 99.5245 536.051 98.499 536.49 97.6186C536.933 96.7383 537.557 96.0546 538.361 95.5677C539.165 95.0808 540.116 94.8374 541.212 94.8374C542.309 94.8374 543.259 95.0808 544.063 95.5677C544.867 96.0546 545.488 96.7383 545.927 97.6186C546.371 98.499 546.592 99.5245 546.592 100.695C546.592 101.866 546.371 102.889 545.927 103.764C545.488 104.639 544.867 105.321 544.063 105.808C543.259 106.295 542.309 106.538 541.212 106.538ZM541.227 104.398C541.821 104.398 542.318 104.234 542.718 103.904C543.118 103.57 543.415 103.122 543.61 102.562C543.81 102.001 543.91 101.376 543.91 100.688C543.91 99.9942 543.81 99.3671 543.61 98.8064C543.415 98.2408 543.118 97.7908 542.718 97.4563C542.318 97.1219 541.821 96.9547 541.227 96.9547C540.618 96.9547 540.111 97.1219 539.706 97.4563C539.307 97.7908 539.007 98.2408 538.807 98.8064C538.612 99.3671 538.515 99.9942 538.515 100.688C538.515 101.376 538.612 102.001 538.807 102.562C539.007 103.122 539.307 103.57 539.706 103.904C540.111 104.234 540.618 104.398 541.227 104.398Z" fill="black"/>
<path d="M548.632 106.317V94.9849H551.198V96.8735H551.315C551.52 96.2194 551.871 95.7153 552.368 95.3612C552.87 95.0021 553.442 94.8226 554.086 94.8226C554.232 94.8226 554.395 94.83 554.575 94.8447C554.761 94.8546 554.914 94.8718 555.036 94.8964V97.3531C554.924 97.3137 554.746 97.2793 554.502 97.2498C554.263 97.2153 554.032 97.1981 553.808 97.1981C553.325 97.1981 552.892 97.3039 552.507 97.5154C552.127 97.7219 551.827 98.0096 551.608 98.3785C551.388 98.7474 551.279 99.1728 551.279 99.6548V106.317H548.632Z" fill="black"/>
<path d="M556.588 110.566V94.9849H559.19V96.8588H559.344C559.48 96.5833 559.673 96.2907 559.921 95.9809C560.17 95.6661 560.506 95.398 560.93 95.1767C561.354 94.9505 561.895 94.8374 562.553 94.8374C563.42 94.8374 564.203 95.0611 564.899 95.5087C565.601 95.9513 566.157 96.6079 566.566 97.4785C566.98 98.3441 567.187 99.4064 567.187 100.666C567.187 101.91 566.985 102.967 566.581 103.838C566.176 104.708 565.626 105.372 564.929 105.83C564.232 106.287 563.442 106.516 562.56 106.516C561.917 106.516 561.383 106.408 560.959 106.191C560.535 105.975 560.194 105.714 559.936 105.409C559.683 105.099 559.485 104.807 559.344 104.531H559.234V110.566H556.588ZM559.183 100.651C559.183 101.384 559.285 102.025 559.49 102.576C559.7 103.127 559.999 103.557 560.389 103.867C560.784 104.172 561.262 104.325 561.822 104.325C562.407 104.325 562.896 104.167 563.291 103.853C563.686 103.533 563.983 103.098 564.183 102.547C564.388 101.991 564.49 101.359 564.49 100.651C564.49 99.9475 564.39 99.3228 564.19 98.7769C563.991 98.231 563.693 97.8031 563.299 97.4932C562.904 97.1834 562.412 97.0284 561.822 97.0284C561.257 97.0284 560.777 97.1785 560.382 97.4785C559.987 97.7785 559.687 98.199 559.483 98.74C559.283 99.281 559.183 99.9179 559.183 100.651Z" fill="black"/>
<path d="M574.145 106.538C573.049 106.538 572.098 106.295 571.294 105.808C570.49 105.321 569.867 104.639 569.423 103.764C568.984 102.889 568.765 101.866 568.765 100.695C568.765 99.5245 568.984 98.499 569.423 97.6186C569.867 96.7383 570.49 96.0546 571.294 95.5677C572.098 95.0808 573.049 94.8374 574.145 94.8374C575.242 94.8374 576.192 95.0808 576.996 95.5677C577.8 96.0546 578.422 96.7383 578.86 97.6186C579.304 98.499 579.525 99.5245 579.525 100.695C579.525 101.866 579.304 102.889 578.86 103.764C578.422 104.639 577.8 105.321 576.996 105.808C576.192 106.295 575.242 106.538 574.145 106.538ZM574.16 104.398C574.754 104.398 575.251 104.234 575.651 103.904C576.051 103.57 576.348 103.122 576.543 102.562C576.743 102.001 576.843 101.376 576.843 100.688C576.843 99.9942 576.743 99.3671 576.543 98.8064C576.348 98.2408 576.051 97.7908 575.651 97.4563C575.251 97.1219 574.754 96.9547 574.16 96.9547C573.551 96.9547 573.044 97.1219 572.639 97.4563C572.24 97.7908 571.94 98.2408 571.74 98.8064C571.545 99.3671 571.448 99.9942 571.448 100.688C571.448 101.376 571.545 102.001 571.74 102.562C571.94 103.122 572.24 103.57 572.639 103.904C573.044 104.234 573.551 104.398 574.16 104.398Z" fill="black"/>
<path d="M581.565 106.317V94.9849H584.131V96.8735H584.248C584.453 96.2194 584.804 95.7153 585.301 95.3612C585.803 95.0021 586.375 94.8226 587.019 94.8226C587.165 94.8226 587.328 94.83 587.508 94.8447C587.694 94.8546 587.847 94.8718 587.969 94.8964V97.3531C587.857 97.3137 587.679 97.2793 587.435 97.2498C587.196 97.2153 586.965 97.1981 586.741 97.1981C586.258 97.1981 585.825 97.3039 585.44 97.5154C585.06 97.7219 584.76 98.0096 584.541 98.3785C584.321 98.7474 584.212 99.1728 584.212 99.6548V106.317H581.565Z" fill="black"/>
<path d="M592.551 106.545C591.84 106.545 591.199 106.417 590.629 106.162C590.063 105.901 589.615 105.517 589.284 105.011C588.957 104.504 588.794 103.88 588.794 103.137C588.794 102.498 588.911 101.969 589.145 101.551C589.379 101.133 589.698 100.798 590.102 100.547C590.507 100.297 590.962 100.107 591.469 99.9794C591.981 99.8466 592.51 99.7507 593.055 99.6917C593.713 99.6228 594.247 99.5614 594.656 99.5073C595.066 99.4482 595.363 99.3597 595.548 99.2417C595.738 99.1187 595.833 98.9294 595.833 98.6736V98.6294C595.833 98.0736 595.67 97.6432 595.343 97.3383C595.017 97.0334 594.547 96.8809 593.933 96.8809C593.284 96.8809 592.77 97.0235 592.39 97.3088C592.015 97.5941 591.762 97.931 591.63 98.3195L589.159 97.9654C589.354 97.2768 589.676 96.7014 590.124 96.2391C590.572 95.7718 591.121 95.4226 591.769 95.1915C592.417 94.9554 593.133 94.8374 593.918 94.8374C594.459 94.8374 594.997 94.9013 595.533 95.0292C596.07 95.157 596.559 95.3685 597.003 95.6636C597.446 95.9538 597.802 96.3497 598.07 96.8514C598.343 97.3531 598.479 97.9801 598.479 98.7326V106.317H595.936V104.76H595.848C595.687 105.075 595.46 105.37 595.168 105.645C594.88 105.916 594.517 106.135 594.079 106.302C593.645 106.464 593.136 106.545 592.551 106.545ZM593.238 104.583C593.769 104.583 594.23 104.477 594.62 104.266C595.01 104.049 595.309 103.764 595.519 103.41C595.733 103.056 595.84 102.67 595.84 102.252V100.916C595.758 100.985 595.616 101.049 595.416 101.108C595.222 101.167 595.002 101.219 594.759 101.263C594.515 101.307 594.274 101.347 594.035 101.381C593.796 101.416 593.589 101.445 593.414 101.47C593.019 101.524 592.666 101.612 592.354 101.735C592.042 101.858 591.796 102.03 591.615 102.252C591.435 102.468 591.345 102.748 591.345 103.093C591.345 103.585 591.523 103.956 591.879 104.207C592.234 104.458 592.687 104.583 593.238 104.583Z" fill="black"/>
<path d="M606.541 94.9849V97.0506H600.086V94.9849H606.541ZM601.68 92.27H604.326V102.908C604.326 103.267 604.38 103.543 604.487 103.735C604.599 103.921 604.745 104.049 604.925 104.118C605.106 104.187 605.306 104.221 605.525 104.221C605.691 104.221 605.842 104.209 605.978 104.185C606.119 104.16 606.227 104.138 606.3 104.118L606.746 106.206C606.604 106.255 606.402 106.309 606.139 106.368C605.881 106.427 605.564 106.462 605.189 106.472C604.526 106.491 603.929 106.39 603.398 106.169C602.867 105.943 602.445 105.594 602.133 105.121C601.826 104.649 601.675 104.059 601.68 103.351V92.27Z" fill="black"/>
<path d="M608.548 106.317V94.9849H611.194V106.317H608.548ZM609.879 93.3766C609.46 93.3766 609.099 93.2365 608.797 92.9561C608.495 92.6708 608.344 92.329 608.344 91.9306C608.344 91.5274 608.495 91.1855 608.797 90.9052C609.099 90.6199 609.46 90.4773 609.879 90.4773C610.303 90.4773 610.663 90.6199 610.96 90.9052C611.263 91.1855 611.414 91.5274 611.414 91.9306C611.414 92.329 611.263 92.6708 610.96 92.9561C610.663 93.2365 610.303 93.3766 609.879 93.3766Z" fill="black"/>
<path d="M618.607 106.538C617.511 106.538 616.56 106.295 615.756 105.808C614.952 105.321 614.329 104.639 613.885 103.764C613.446 102.889 613.227 101.866 613.227 100.695C613.227 99.5245 613.446 98.499 613.885 97.6186C614.329 96.7383 614.952 96.0546 615.756 95.5677C616.56 95.0808 617.511 94.8374 618.607 94.8374C619.704 94.8374 620.654 95.0808 621.458 95.5677C622.262 96.0546 622.884 96.7383 623.322 97.6186C623.766 98.499 623.987 99.5245 623.987 100.695C623.987 101.866 623.766 102.889 623.322 103.764C622.884 104.639 622.262 105.321 621.458 105.808C620.654 106.295 619.704 106.538 618.607 106.538ZM618.622 104.398C619.216 104.398 619.713 104.234 620.113 103.904C620.513 103.57 620.81 103.122 621.005 102.562C621.205 102.001 621.305 101.376 621.305 100.688C621.305 99.9942 621.205 99.3671 621.005 98.8064C620.81 98.2408 620.513 97.7908 620.113 97.4563C619.713 97.1219 619.216 96.9547 618.622 96.9547C618.013 96.9547 617.506 97.1219 617.101 97.4563C616.702 97.7908 616.402 98.2408 616.202 98.8064C616.007 99.3671 615.91 99.9942 615.91 100.688C615.91 101.376 616.007 102.001 616.202 102.562C616.402 103.122 616.702 103.57 617.101 103.904C617.506 104.234 618.013 104.398 618.622 104.398Z" fill="black"/>
<path d="M628.674 99.6769V106.317H626.027V94.9849H628.557V96.9104H628.688C628.947 96.276 629.358 95.7718 629.924 95.398C630.494 95.0242 631.198 94.8374 632.036 94.8374C632.811 94.8374 633.486 95.0046 634.061 95.339C634.641 95.6735 635.089 96.1579 635.406 96.7924C635.728 97.4268 635.886 98.1965 635.881 99.1015V106.317H633.235V99.5146C633.235 98.7572 633.04 98.1646 632.65 97.7367C632.265 97.3088 631.732 97.0948 631.049 97.0948C630.586 97.0948 630.175 97.1981 629.814 97.4047C629.458 97.6063 629.178 97.899 628.973 98.2826C628.774 98.6662 628.674 99.131 628.674 99.6769Z" fill="black"/>
<path d="M405.359 87.1019C405.842 87.8186 406.371 88.3227 406.946 88.6144C407.53 88.8977 408.184 89.0394 408.909 89.0394C409.65 89.0394 410.296 88.9061 410.846 88.6394C411.405 88.3727 411.867 87.9936 412.234 87.5019C412.609 87.0019 412.888 86.3977 413.071 85.6894C413.255 84.9811 413.346 84.1852 413.346 83.3019C413.346 81.5852 413.005 80.2936 412.321 79.4269C411.638 78.5602 410.68 78.1269 409.446 78.1269C408.563 78.1269 407.792 78.3394 407.134 78.7644C406.475 79.1894 405.884 79.7811 405.359 80.5394V87.1019ZM405.359 79.5394C405.9 78.8061 406.534 78.2311 407.259 77.8144C407.984 77.3894 408.825 77.1769 409.784 77.1769C410.534 77.1769 411.205 77.3144 411.796 77.5894C412.388 77.8644 412.888 78.2602 413.296 78.7769C413.713 79.2936 414.03 79.9311 414.246 80.6894C414.463 81.4394 414.571 82.2936 414.571 83.2519C414.571 84.2602 414.45 85.1811 414.209 86.0144C413.967 86.8394 413.613 87.5477 413.146 88.1394C412.688 88.7227 412.125 89.1769 411.459 89.5019C410.792 89.8186 410.03 89.9769 409.171 89.9769C408.288 89.9769 407.534 89.8102 406.909 89.4769C406.292 89.1352 405.759 88.6311 405.309 87.9644L405.221 89.5019C405.196 89.7102 405.084 89.8144 404.884 89.8144H404.159V71.6269H405.359V79.5394ZM427.435 77.3769L420.285 93.8144C420.235 93.9311 420.169 94.0269 420.085 94.1019C420.01 94.1769 419.898 94.2144 419.748 94.2144H418.898L421.085 89.3519L415.823 77.3769H416.81C416.935 77.3769 417.035 77.4102 417.11 77.4769C417.185 77.5352 417.235 77.6019 417.26 77.6769L421.448 87.3519C421.498 87.4769 421.539 87.6061 421.573 87.7394C421.614 87.8644 421.652 87.9936 421.685 88.1269C421.727 87.9936 421.769 87.8644 421.81 87.7394C421.86 87.6061 421.91 87.4769 421.96 87.3519L426.098 77.6769C426.139 77.5852 426.198 77.5144 426.273 77.4644C426.348 77.4061 426.431 77.3769 426.523 77.3769H427.435Z" fill="black"/>
<defs>
<clipPath id="clip0_2_220">
<rect width="325.122" height="78.9728" fill="white" transform="translate(58 36)"/>
</clipPath>
</defs>
</svg>
