<svg width="234" height="58" viewBox="0 0 234 58" fill="none" xmlns="http://www.w3.org/2000/svg">
<path d="M48.6109 45.0422C48.0521 46.2419 47.2115 47.2124 46.0914 47.9538C44.9702 48.6927 43.7497 49.2319 42.4299 49.5714C41.1089 49.9108 39.8283 50.0811 38.587 50.0811C35.2245 50.0811 32.6327 49.2822 30.813 47.6842C28.992 46.0838 28.0828 44.0019 28.0828 41.4395C28.0828 39.7999 28.5019 38.2682 29.3425 36.8467C30.1819 35.4252 31.4416 34.2758 33.1217 33.3959C34.8041 32.5173 36.8665 32.0774 39.3075 32.0774C40.6273 32.0774 41.9471 32.1779 43.2681 32.3764C44.5878 32.5761 45.828 32.9156 46.9884 33.3959V30.5775C46.9884 29.0163 46.3573 27.8558 45.0964 27.0973C43.8379 26.3363 42.3686 25.9552 40.6898 25.9552C38.8468 25.9552 37.1337 26.1452 35.5529 26.5238C33.9745 26.9037 32.705 27.2725 31.7443 27.6316L30.3032 22.3525C31.9428 21.5131 33.6829 20.9139 35.5235 20.5536C37.3665 20.1909 39.2683 20.0095 41.229 20.0095C43.7092 20.0095 45.9995 20.311 48.1011 20.9114C50.2015 21.5131 51.8815 22.5731 53.14 24.0926C54.4009 25.6121 55.032 27.7737 55.032 30.5775V41.0817C55.032 42.3206 55.1411 43.2703 55.3604 43.9296C55.5822 44.5901 56.3726 44.8805 57.7328 44.8021L57.7966 49.4831C56.3555 49.803 54.9242 49.9316 53.5027 49.8704C52.0812 49.8115 50.9097 49.4231 49.9882 48.7038C49.0692 47.982 48.6109 46.7615 48.6109 45.0422ZM46.9884 38.3172C46.3475 37.9973 45.4665 37.7375 44.3464 37.5378C43.2289 37.3393 42.0892 37.2388 40.93 37.2388C39.446 37.2388 38.3137 37.5795 37.5331 38.2584C36.755 38.9385 36.3666 39.8391 36.3666 40.9592C36.3666 41.6785 36.6864 42.3488 37.3273 42.9688C37.9669 43.5901 38.9473 43.9001 40.2683 43.9001C41.1861 43.9001 42.1456 43.7114 43.1455 43.3316C44.1479 42.9492 45.0192 42.3488 45.7581 41.5277C46.4995 40.7079 46.91 39.6382 46.9884 38.3172Z" fill="#1565C0"/>
<path d="M90.8097 20.5487V40.8415C90.8097 42.2017 90.9384 43.1404 91.1969 43.66C91.4579 44.1795 92.2287 44.4001 93.5105 44.3217L93.5693 49.4243C92.5694 49.662 91.4579 49.8422 90.2362 49.9635C89.0169 50.0836 87.8564 50.0431 86.756 49.8409C85.6544 49.6412 84.7537 49.1927 84.0552 48.493C83.3555 47.7945 83.0063 46.7431 83.0063 45.3412C82.483 46.4625 81.7122 47.3742 80.6927 48.0764C79.6731 48.7761 78.5519 49.2846 77.3302 49.6008C76.1109 49.9206 74.921 50.0811 73.7617 50.0811C70.9997 50.0811 68.838 49.5003 67.2769 48.341C65.7181 47.1818 64.6177 45.6304 63.9781 43.6894C63.3372 41.7483 63.0173 39.5793 63.0173 37.18V20.5487H71.4776V37.18C71.4776 39.5009 71.9383 41.1307 72.8598 42.0718C73.7814 43.0105 74.9823 43.4786 76.4626 43.4786C78.1414 43.5215 79.5518 42.9431 80.6927 41.7434C81.8323 40.5413 82.4034 38.9593 82.4034 36.9986V20.5487L90.8097 20.5487Z" fill="#1565C0"/>
<path d="M110.674 20.6124H120.1V26.9159H110.674V37.6603C110.674 39.6602 111.155 41.0805 112.115 41.9199C113.076 42.7605 114.306 43.16 115.806 43.1208C117.309 43.0816 118.86 42.7813 120.458 42.2189L121.242 48.5812C118.758 49.2613 116.386 49.64 114.125 49.7184C111.867 49.7993 109.857 49.4623 108.096 48.7038C106.334 47.9428 104.954 46.6818 103.954 44.9197C102.954 43.1588 102.454 40.7974 102.454 37.8368V26.9159L96.9888 26.3718V20.6124H103.052L103.954 11.6081H110.674L110.674 20.6124Z" fill="#1565C0"/>
<path d="M146.631 49.4831V32.7342C146.709 30.6951 146.229 29.1658 145.189 28.1462C144.15 27.1243 142.849 26.612 141.288 26.612C139.608 26.5728 138.157 27.1144 136.935 28.2345C135.716 29.3557 135.107 30.9157 135.107 32.9155V49.4831H126.642V5.66238H135.107V23.671C136.025 22.3905 137.234 21.4506 138.734 20.8526C140.236 20.2521 141.888 19.9507 143.69 19.9507C146.45 19.9507 148.661 20.5021 150.321 21.6025C151.981 22.7005 153.191 24.2102 153.954 26.1317C154.715 28.0531 155.096 30.254 155.096 32.7342V49.4831H146.631Z" fill="#1565C0"/>
<path d="M163.856 49.824V7.50808H171.66V32.8986H171.841L183.428 20.169H192.732L178.145 35.9572L178.203 33.0163L193.693 49.824H184.267L171.841 36.7366H171.66V49.824L163.856 49.824Z" fill="#B00020"/>
<path d="M196.63 14.0469V6.36599H205.453V14.0469H196.63ZM197.17 49.824V20.169H204.973V49.824H197.17Z" fill="#B00020"/>
<path d="M227.363 50.422C223.32 50.422 220.309 49.4123 218.329 47.3928C216.349 45.3733 215.359 42.4421 215.359 38.5992V26.2324H209.658V20.169H215.599V11.5862H223.162V20.169H232.706V26.2324H223.162V38.2414C223.162 40.1604 223.601 41.5892 224.481 42.5304C225.363 43.4715 226.743 43.942 228.622 43.942C229.305 43.942 229.977 43.8722 230.637 43.7313C231.296 43.5916 231.967 43.4212 232.647 43.2215L233.789 49.0447C232.946 49.4858 231.953 49.8252 230.813 50.0642C229.673 50.3019 228.522 50.422 227.363 50.422Z" fill="#B00020"/>
<path d="M21.7765 0.685438H28.6192L7.55193 57.1083H0.645508L21.7765 0.685438Z" fill="#FF7043"/>
</svg>
